<?xml version="1.0" encoding="UTF-8" standalone="no"?>
<!-- Created with Inkscape (http://www.inkscape.org/) -->

<svg
   version="1.1"
   id="svg2"
   width="246"
   height="246"
   viewBox="0 0 246 246"
   sodipodi:docname="Netatalk_logo.svg"
   inkscape:version="1.2.2 (b0a84865, 2022-12-01)"
   xmlns:inkscape="http://www.inkscape.org/namespaces/inkscape"
   xmlns:sodipodi="http://sodipodi.sourceforge.net/DTD/sodipodi-0.dtd"
   xmlns="http://www.w3.org/2000/svg"
   xmlns:svg="http://www.w3.org/2000/svg">
  <defs
     id="defs6">
    <clipPath
       clipPathUnits="userSpaceOnUse"
       id="clipPath18">
      <path
         d="M 0,216 H 216 V 0 H 0 Z"
         id="path16" />
    </clipPath>
    <clipPath
       clipPathUnits="userSpaceOnUse"
       id="clipPath76">
      <path
         d="m 106.997,139.145 h 43.433 v -3.278 h -43.433 z"
         id="path74" />
    </clipPath>
    <clipPath
       clipPathUnits="userSpaceOnUse"
       id="clipPath80">
      <path
         d="m 150.43,135.867 h -43.433 v 3.278 h 43.433 z"
         id="path78" />
    </clipPath>
    <linearGradient
       x1="0"
       y1="0"
       x2="1"
       y2="0"
       gradientUnits="userSpaceOnUse"
       gradientTransform="matrix(43.432617,0,0,-43.432617,106.99707,137.50586)"
       spreadMethod="pad"
       id="linearGradient88">
      <stop
         style="stop-opacity:1;stop-color:#ffffff"
         offset="0"
         id="stop82" />
      <stop
         style="stop-opacity:1;stop-color:#231f20"
         offset="0.98423259"
         id="stop84" />
      <stop
         style="stop-opacity:1;stop-color:#231f20"
         offset="1"
         id="stop86" />
    </linearGradient>
    <clipPath
       clipPathUnits="userSpaceOnUse"
       id="clipPath120">
      <path
         d="m 106.997,133.854 h 43.433 v -3.278 h -43.433 z"
         id="path118" />
    </clipPath>
    <clipPath
       clipPathUnits="userSpaceOnUse"
       id="clipPath124">
      <path
         d="m 150.43,130.576 h -43.433 v 3.278 h 43.433 z"
         id="path122" />
    </clipPath>
    <linearGradient
       x1="0"
       y1="0"
       x2="1"
       y2="0"
       gradientUnits="userSpaceOnUse"
       gradientTransform="matrix(43.432617,0,0,-43.432617,106.99707,132.21484)"
       spreadMethod="pad"
       id="linearGradient132">
      <stop
         style="stop-opacity:1;stop-color:#ffffff"
         offset="0"
         id="stop126" />
      <stop
         style="stop-opacity:1;stop-color:#231f20"
         offset="0.98423259"
         id="stop128" />
      <stop
         style="stop-opacity:1;stop-color:#231f20"
         offset="1"
         id="stop130" />
    </linearGradient>
    <clipPath
       clipPathUnits="userSpaceOnUse"
       id="clipPath164">
      <path
         d="M 39.6411,84.9033 H 88.6143 V 81.626 H 39.6411 Z"
         id="path162" />
    </clipPath>
    <clipPath
       clipPathUnits="userSpaceOnUse"
       id="clipPath168">
      <path
         d="M 39.641,84.903 H 88.614 V 81.626 H 39.641 Z"
         id="path166" />
    </clipPath>
    <linearGradient
       x1="0"
       y1="0"
       x2="1"
       y2="0"
       gradientUnits="userSpaceOnUse"
       gradientTransform="matrix(-48.973633,0,0,48.973633,88.614258,83.264648)"
       spreadMethod="pad"
       id="linearGradient178">
      <stop
         style="stop-opacity:1;stop-color:#ffffff"
         offset="0"
         id="stop170" />
      <stop
         style="stop-opacity:1;stop-color:#5d5a5b"
         offset="0.95177851"
         id="stop172" />
      <stop
         style="stop-opacity:1;stop-color:#5d5a5b"
         offset="0.967026"
         id="stop174" />
      <stop
         style="stop-opacity:1;stop-color:#5d5a5b"
         offset="1"
         id="stop176" />
    </linearGradient>
    <clipPath
       clipPathUnits="userSpaceOnUse"
       id="clipPath210">
      <path
         d="M 39.6411,90.1943 H 88.6143 V 86.917 H 39.6411 Z"
         id="path208" />
    </clipPath>
    <clipPath
       clipPathUnits="userSpaceOnUse"
       id="clipPath214">
      <path
         d="M 39.641,90.194 H 88.614 V 86.917 H 39.641 Z"
         id="path212" />
    </clipPath>
    <linearGradient
       x1="0"
       y1="0"
       x2="1"
       y2="0"
       gradientUnits="userSpaceOnUse"
       gradientTransform="matrix(-48.973633,0,0,48.973633,88.614258,88.555664)"
       spreadMethod="pad"
       id="linearGradient224">
      <stop
         style="stop-opacity:1;stop-color:#ffffff"
         offset="0"
         id="stop216" />
      <stop
         style="stop-opacity:1;stop-color:#5d5a5b"
         offset="0.95177851"
         id="stop218" />
      <stop
         style="stop-opacity:1;stop-color:#5d5a5b"
         offset="0.967026"
         id="stop220" />
      <stop
         style="stop-opacity:1;stop-color:#5d5a5b"
         offset="1"
         id="stop222" />
    </linearGradient>
  </defs>
  <sodipodi:namedview
     id="namedview4"
     pagecolor="#ffffff"
     bordercolor="#000000"
     borderopacity="0.25"
     inkscape:showpageshadow="2"
     inkscape:pageopacity="0.0"
     inkscape:pagecheckerboard="0"
     inkscape:deskcolor="#d1d1d1"
     showgrid="false"
     inkscape:zoom="2.90625"
     inkscape:cx="116.8172"
     inkscape:cy="118.19355"
     inkscape:window-width="1495"
     inkscape:window-height="985"
     inkscape:window-x="0"
     inkscape:window-y="38"
     inkscape:window-maximized="0"
     inkscape:current-layer="g10">
    <inkscape:page
       x="0"
       y="0"
       id="page8"
       width="246"
       height="246" />
  </sodipodi:namedview>
  <g
     id="g10"
     inkscape:groupmode="layer"
     inkscape:label="Page 1"
     transform="matrix(1.3333333,0,0,-1.3333333,0,288)">
    <g
       id="g12"
       transform="translate(-15.75025,13.500455)">
      <g
         id="g14"
         clip-path="url(#clipPath18)">
        <g
           id="g20"
           transform="translate(108,198.8301)">
          <path
             d="m 0,0 c -48.921,0 -88.579,-39.658 -88.579,-88.58 0,-48.921 39.658,-88.579 88.579,-88.579 48.921,0 88.579,39.658 88.579,88.579 C 88.579,-39.658 48.921,0 0,0"
             style="fill:#666769;fill-opacity:1;fill-rule:nonzero;stroke:none"
             id="path22" />
        </g>
        <g
           id="g24"
           transform="translate(183.7432,62.8789)">
          <path
             d="m 0,0 c -1.408,4.226 -6.746,4.55 -13.746,6.384 2.763,10.185 4.357,27.183 -6.136,39.886 2.455,9.143 23.932,37.739 -14.912,63.82 4.25,-22.5 2.639,-32.033 -8.393,-43.542 -6.999,6.423 -15.959,9.114 -24.353,10.594 -0.285,0.102 -0.564,0.145 -0.828,0.189 -2.275,0.379 -4.547,0.533 -6.807,0.52 -2.26,0.013 -4.532,-0.141 -6.806,-0.52 -0.265,-0.044 -0.543,-0.087 -0.829,-0.189 -9.108,-1.735 -17.684,-6.348 -24.683,-12.771 -14.625,12.375 -11.75,26.125 -7.5,48.625 -35.5,-30.375 -19.75,-58.375 -9.5,-67 -11.75,-5.625 -13.75,-27 -10.334,-37.625 -7,-1.834 -12.145,-8.355 -13.553,-12.581 -1.409,-4.226 7.886,-8.591 7.886,-8.591 h 0.219 130.201 0.218 c 0,0 11.264,8.575 9.856,12.801"
             style="fill:#231f20;fill-opacity:1;fill-rule:nonzero;stroke:none"
             id="path26" />
        </g>
        <g
           id="g28"
           transform="translate(29.667,94.583)">
          <path
             d="M 0,0 V 31.25 H 6.833 L 11.25,17.5 v 13.75 h 6.833 V 0 H 10.917 L 6.667,14 V 0 Z"
             style="fill:#ffffff;fill-opacity:1;fill-rule:nonzero;stroke:none"
             id="path30" />
        </g>
        <g
           id="g32"
           transform="translate(51.9585,125.833)">
          <path
             d="M 0,0 H 13.375 V -6.166 H 8.042 v -5.917 h 5 v -6 H 8.208 V -25 h 5.667 v -6.25 H 0 Z"
             style="fill:#ffffff;fill-opacity:1;fill-rule:nonzero;stroke:none"
             id="path34" />
        </g>
        <g
           id="g36"
           transform="translate(72.5547,94.583)">
          <path
             d="M 0,0 V 25.084 H -4.721 V 31.25 H 12.945 V 25.084 H 8.25 V 0 Z"
             style="fill:#ffffff;fill-opacity:1;fill-rule:nonzero;stroke:none"
             id="path38" />
        </g>
        <g
           id="g40"
           transform="translate(117.25,94.583)">
          <path
             d="M 0,0 V 25.083 H -4.917 V 31.25 H 12.917 V 25.083 H 8.167 V 0 Z"
             style="fill:#ffffff;fill-opacity:1;fill-rule:nonzero;stroke:none"
             id="path42" />
        </g>
        <g
           id="g44"
           transform="translate(142.5,105.917)">
          <path
             d="M 0,0 -1.25,12.333 -2.667,0 Z m -11.667,-11.334 4.25,31.25 H 4.333 L 9.25,-11.334 H 0.833 L 0.25,-5.75 h -2.667 l -0.833,-5.584 z"
             style="fill:#ffffff;fill-opacity:1;fill-rule:nonzero;stroke:none"
             id="path46" />
        </g>
        <g
           id="g48"
           transform="translate(153.917,94.583)">
          <path
             d="m 0,0 v 31.25 h 8.083 v -25 h 4.834 V 0 Z"
             style="fill:#ffffff;fill-opacity:1;fill-rule:nonzero;stroke:none"
             id="path50" />
        </g>
        <g
           id="g52"
           transform="translate(169.834,94.583)">
          <path
             d="M 0,0 V 31.25 H 8.083 V 19.417 L 12,31.25 h 7.666 L 14.75,17.25 19.916,0 H 11.333 L 8.083,13.333 V 0 Z"
             style="fill:#ffffff;fill-opacity:1;fill-rule:nonzero;stroke:none"
             id="path54" />
        </g>
        <g
           id="g56"
           transform="translate(100.1602,119.2227)">
          <path
             d="m 0,0 -3.702,-12.233 h 2.656 z M -14.326,-23.34 -4.749,7.484 H 6.76 L 5.956,-23.34 h -8.129 l 0.483,5.473 h -2.817 l -1.449,-5.473 z"
             style="fill:#ffffff;fill-opacity:1;fill-rule:nonzero;stroke:none"
             id="path58" />
        </g>
        <path
           d="M 24.609,135.867 H 88.9 v 3.278 H 24.609 Z"
           style="fill:#ffffff;fill-opacity:1;fill-rule:nonzero;stroke:none"
           id="path60" />
        <path
           d="m 95.898,135.867 h -5.604 v 3.278 h 5.604 z"
           style="fill:#ffffff;fill-opacity:1;fill-rule:nonzero;stroke:none"
           id="path62" />
        <path
           d="m 100.917,135.867 h -3.613 v 3.278 h 3.613 z"
           style="fill:#ffffff;fill-opacity:1;fill-rule:nonzero;stroke:none"
           id="path64" />
        <path
           d="m 104.05,135.867 h -1.727 v 3.278 h 1.727 z"
           style="fill:#ffffff;fill-opacity:1;fill-rule:nonzero;stroke:none"
           id="path66" />
        <path
           d="m 106.222,135.867 h -0.997 v 3.278 h 0.997 z"
           style="fill:#ffffff;fill-opacity:1;fill-rule:nonzero;stroke:none"
           id="path68" />
        <g
           id="g70">
          <g
             id="g72" />
          <g
             id="g102">
            <g
               clip-path="url(#clipPath76)"
               opacity="0.5"
               id="g100">
              <g
                 id="g98">
                <g
                   clip-path="url(#clipPath80)"
                   id="g96">
                  <g
                     id="g94">
                    <g
                       id="g92">
                      <path
                         d="m 150.43,135.867 h -43.433 v 3.278 h 43.433 z"
                         style="fill:url(#linearGradient88);stroke:none"
                         id="path90" />
                    </g>
                  </g>
                </g>
              </g>
            </g>
          </g>
        </g>
        <path
           d="M 24.609,130.576 H 88.9 v 3.278 H 24.609 Z"
           style="fill:#ffffff;fill-opacity:1;fill-rule:nonzero;stroke:none"
           id="path104" />
        <path
           d="m 95.898,130.576 h -5.604 v 3.278 h 5.604 z"
           style="fill:#ffffff;fill-opacity:1;fill-rule:nonzero;stroke:none"
           id="path106" />
        <path
           d="m 100.917,130.576 h -3.613 v 3.278 h 3.613 z"
           style="fill:#ffffff;fill-opacity:1;fill-rule:nonzero;stroke:none"
           id="path108" />
        <path
           d="m 104.05,130.576 h -1.727 v 3.278 h 1.727 z"
           style="fill:#ffffff;fill-opacity:1;fill-rule:nonzero;stroke:none"
           id="path110" />
        <path
           d="m 106.222,130.576 h -0.997 v 3.278 h 0.997 z"
           style="fill:#ffffff;fill-opacity:1;fill-rule:nonzero;stroke:none"
           id="path112" />
        <g
           id="g114">
          <g
             id="g116" />
          <g
             id="g146">
            <g
               clip-path="url(#clipPath120)"
               opacity="0.5"
               id="g144">
              <g
                 id="g142">
                <g
                   clip-path="url(#clipPath124)"
                   id="g140">
                  <g
                     id="g138">
                    <g
                       id="g136">
                      <path
                         d="m 150.43,130.576 h -43.433 v 3.278 h 43.433 z"
                         style="fill:url(#linearGradient132);stroke:none"
                         id="path134" />
                    </g>
                  </g>
                </g>
              </g>
            </g>
          </g>
        </g>
        <path
           d="m 193.734,84.903 h -87.023 v -3.277 h 87.023 z"
           style="fill:#ffffff;fill-opacity:1;fill-rule:nonzero;stroke:none"
           id="path148" />
        <path
           d="m 99.713,84.903 h 5.605 v -3.277 h -5.605 z"
           style="fill:#ffffff;fill-opacity:1;fill-rule:nonzero;stroke:none"
           id="path150" />
        <path
           d="m 94.693,84.903 h 3.613 v -3.277 h -3.613 z"
           style="fill:#ffffff;fill-opacity:1;fill-rule:nonzero;stroke:none"
           id="path152" />
        <path
           d="m 91.561,84.903 h 1.727 v -3.277 h -1.727 z"
           style="fill:#ffffff;fill-opacity:1;fill-rule:nonzero;stroke:none"
           id="path154" />
        <path
           d="m 89.39,84.903 h 0.997 V 81.626 H 89.39 Z"
           style="fill:#ffffff;fill-opacity:1;fill-rule:nonzero;stroke:none"
           id="path156" />
        <g
           id="g158">
          <g
             id="g160" />
          <g
             id="g192">
            <g
               clip-path="url(#clipPath164)"
               opacity="0.5"
               id="g190">
              <g
                 id="g188">
                <g
                   clip-path="url(#clipPath168)"
                   id="g186">
                  <g
                     id="g184">
                    <g
                       id="g182">
                      <path
                         d="M 39.641,84.903 H 88.614 V 81.626 H 39.641 Z"
                         style="fill:url(#linearGradient178);stroke:none"
                         id="path180" />
                    </g>
                  </g>
                </g>
              </g>
            </g>
          </g>
        </g>
        <path
           d="m 193.734,90.194 h -87.023 v -3.277 h 87.023 z"
           style="fill:#ffffff;fill-opacity:1;fill-rule:nonzero;stroke:none"
           id="path194" />
        <path
           d="m 99.713,90.194 h 5.605 v -3.277 h -5.605 z"
           style="fill:#ffffff;fill-opacity:1;fill-rule:nonzero;stroke:none"
           id="path196" />
        <path
           d="m 94.693,90.194 h 3.613 v -3.277 h -3.613 z"
           style="fill:#ffffff;fill-opacity:1;fill-rule:nonzero;stroke:none"
           id="path198" />
        <path
           d="m 91.561,90.194 h 1.727 v -3.277 h -1.727 z"
           style="fill:#ffffff;fill-opacity:1;fill-rule:nonzero;stroke:none"
           id="path200" />
        <path
           d="m 89.39,90.194 h 0.997 V 86.917 H 89.39 Z"
           style="fill:#ffffff;fill-opacity:1;fill-rule:nonzero;stroke:none"
           id="path202" />
        <g
           id="g204">
          <g
             id="g206" />
          <g
             id="g238">
            <g
               clip-path="url(#clipPath210)"
               opacity="0.5"
               id="g236">
              <g
                 id="g234">
                <g
                   clip-path="url(#clipPath214)"
                   id="g232">
                  <g
                     id="g230">
                    <g
                       id="g228">
                      <path
                         d="M 39.641,90.194 H 88.614 V 86.917 H 39.641 Z"
                         style="fill:url(#linearGradient224);stroke:none"
                         id="path226" />
                    </g>
                  </g>
                </g>
              </g>
            </g>
          </g>
        </g>
        <g
           id="g240"
           transform="translate(108,194.6118)">
          <path
             d="m 0,0 c -46.591,0 -84.361,-37.77 -84.361,-84.362 0,-46.592 37.77,-84.361 84.361,-84.361 46.592,0 84.361,37.769 84.361,84.361 C 84.361,-37.77 46.592,0 0,0 m 92,-84.362 c 0,-50.81 -41.189,-92 -92,-92 -50.81,0 -92,41.19 -92,92 0,50.81 41.19,92 92,92 50.811,0 92,-41.19 92,-92"
             style="fill:#231f20;fill-opacity:1;fill-rule:nonzero;stroke:none"
             id="path242" />
        </g>
      </g>
    </g>
  </g>
</svg>
